<?xml version="1.0" encoding="utf-8"?>
<!-- Generator: Adobe Illustrator 22.0.0, SVG Export Plug-In . SVG Version: 6.00 Build 0)  -->
<svg version="1.1" id="图层_1" xmlns="http://www.w3.org/2000/svg" xmlns:xlink="http://www.w3.org/1999/xlink" x="0px" y="0px"
	 viewBox="0 0 612 792" style="enable-background:new 0 0 612 792;" xml:space="preserve">
<style type="text/css">
	.st0{clip-path:url(#SVGID_2_);fill:#9F9F9F;}
	.st1{fill:#9F9F9F;}
	.st2{fill:#F4A118;}
</style>
<g>
	<defs>
		<rect id="SVGID_1_" x="19" y="133" width="572.9" height="526.8"/>
	</defs>
	<clipPath id="SVGID_2_">
		<use xlink:href="#SVGID_1_"  style="overflow:visible;"/>
	</clipPath>
	<path class="st0" d="M518.1,133.6H93.3c-40.6,0-73.6,33-73.6,73.6v348c-1,3.8-1,7.5,0,11.2v18.9c0,40.6,33,73.6,73.6,73.6h424.8
		c40.6,0,73.6-33,73.6-73.6V207.2C591.7,166.5,558.8,133.6,518.1,133.6L518.1,133.6z M93.3,178.4h424.8c15.8,0,28.8,13,28.8,28.8
		v279.5c-16.6-22.6-36.8-47.2-57.8-66.7c-12.5-11.7-28-16.5-45-14.1c-26.7,3.8-56,26.1-89.4,67.8c-8,9.9-15.2,19.8-21.1,28.3
		c-29.4-40.6-87.4-115.7-136.5-150.2c-14.6-10.2-30.9-12.6-47.5-7.2c-18.1,5.9-35.7,21.3-53.6,46.9c-10.4,14.7-21,33-31.7,54.4
		V207.2C64.5,191.2,77.3,178.4,93.3,178.4L93.3,178.4z M93.3,178.4"/>
</g>
<path class="st1" d="M401.3,286.4c0,27.8,22.6,50.4,50.4,50.4c27.8,0,50.4-22.6,50.4-50.4c0-27.8-22.6-50.4-50.4-50.4
	C423.9,236,401.3,258.5,401.3,286.4L401.3,286.4z M401.3,286.4"/>
<rect x="267" y="502.9" class="st2" width="68.3" height="68.3"/>
<path class="st2" d="M335.3,468.8H267v-51.2c0-18.9,15.3-34.1,34.1-34.1c27,0,49.3-20.9,51.1-47.8c1.8-26.9-17.6-50.6-44.4-54.1
	c-26.7-3.5-51.6,14.3-56.9,40.7l-67-13.4c11.5-57.4,62.9-98,121.4-96c58.5,2.1,106.9,46.2,114.3,104.3c7.4,58.1-28.3,113-84.4,129.7
	V468.8z"/>
</svg>
